<?xml version="1.0" ?><svg id="Layer_1" style="enable-background:new 0 0 512 512;" version="1.1" viewBox="0 0 512 512" xml:space="preserve" xmlns="http://www.w3.org/2000/svg" xmlns:xlink="http://www.w3.org/1999/xlink"><style type="text/css">
	.st0{fill:#456574;}
	.st1{fill:#FFFFFF;}
</style><g id="XMLID_37_"><circle class="st0" cx="256" cy="256" id="XMLID_6_" r="256"/><g id="XMLID_1181_"><path class="st1" d="M256,81c-96.6,0-175,78.4-175,175s78.4,175,175,175s175-78.4,175-175S352.6,81,256,81z     M256,406.5c-83.1,0-150.5-67.4-150.5-150.5S172.9,105.5,256,105.5S406.5,172.9,406.5,256S339.1,406.5,256,406.5z" id="XMLID_1207_"/><path class="st1" d="M268,181.2v-21.7h-16v21.4c-13.4,1.1-24,5.3-31.8,12.7c-7.8,7.4-11.8,16.9-11.8,28.4    c0,12.8,3.8,22.7,11.3,29.4c7.5,6.8,19.4,13,35.5,18.7c7.3,3,12.3,6,14.9,8.8c2.6,2.8,3.9,6.9,3.9,12.3c0,4.7-1.3,8.4-3.8,11.2    c-2.5,2.8-6.6,4.2-12.2,4.2c-6.4,0-11.4-1.7-15.2-5c-3.8-3.3-5.6-8.9-5.6-16.6h-33.4l-0.2,0.6c-0.3,14.7,3.9,25.9,12.7,33.4    c8.8,7.5,20,11.9,33.7,13v20.4h16.1v-20.4c13-1.2,23.3-5.4,30.8-12.6c7.5-7.2,11.3-16.7,11.3-28.5c0-12.8-3.9-22.8-11.7-30.1    c-7.8-7.3-19.5-13.5-35.1-18.5c-7.5-3.6-12.5-6.7-15-9.4c-2.5-2.7-3.7-6.3-3.7-10.8c0-4.8,1.1-8.6,3.4-11.5    c2.3-2.9,6.2-4.3,11.8-4.3c5.3,0,9.5,1.6,12.4,4.9c2.9,3.2,4.4,8.2,4.4,15h33.5l0.2-0.5c0.2-12.4-3.3-22.5-10.5-30.3    C290.6,187.7,280.7,182.9,268,181.2z" id="XMLID_1210_"/></g></g></svg>