<?xml version="1.0" ?><svg id="Layer_1" style="enable-background:new 0 0 512 512;" version="1.1" viewBox="0 0 512 512" xml:space="preserve" xmlns="http://www.w3.org/2000/svg" xmlns:xlink="http://www.w3.org/1999/xlink"><style type="text/css">
	.st0{fill:#F3734E;}
	.st1{fill:#FFFFFF;}
	.st2{fill:#4CB9C0;}
	.st3{fill:#FDBC24;}
	.st4{fill:#456574;}
</style><g id="XMLID_47_"><circle class="st0" cx="256" cy="256" id="XMLID_48_" r="256"/><g id="XMLID_1011_"><path class="st1" d="M256,81c-96.6,0-175,78.4-175,175c0,96.6,78.4,175,175,175s175-78.4,175-175    C431,159.4,352.6,81,256,81z M256,406.5c-83.1,0-150.5-67.4-150.5-150.5c0-83.1,67.4-150.5,150.5-150.5S406.5,172.9,406.5,256    C406.5,339.1,339.1,406.5,256,406.5z" id="XMLID_1014_"/><polygon class="st1" id="XMLID_1013_" points="187.9,248.8 187.9,338.9 324.1,338.9 324.1,248.8 256,187.6   "/><path class="st1" d="M344.2,236.5L261,161.7c-2.9-2.6-7.2-2.6-10.1,0l-31.4,28.2v-13.7c0-1.7-1.4-3.1-3.1-3.1    h-18.6c-1.7,0-3.1,1.4-3.1,3.1v36.1l-26.9,24.2c-3.1,2.8-3.4,7.6-0.6,10.7c2.8,3.1,7.6,3.4,10.7,0.6l78.1-70.2l78.1,70.2    c1.4,1.3,3.2,1.9,5,1.9c2.1,0,4.1-0.8,5.6-2.5C347.6,244,347.3,239.2,344.2,236.5z" id="XMLID_1091_"/><rect class="st1" height="9.2" id="XMLID_1096_" width="136.2" x="187.9" y="343.1"/></g></g><g id="XMLID_45_"><circle class="st2" cx="4579.5" cy="7463" id="XMLID_46_" r="256"/><g id="XMLID_1100_"><path class="st1" d="M4579.5,7288c-96.6,0-175,78.4-175,175s78.4,175,175,175s175-78.4,175-175    S4676.2,7288,4579.5,7288z M4579.5,7613.5c-83.1,0-150.5-67.4-150.5-150.5c0-83.1,67.4-150.5,150.5-150.5    c83.1,0,150.5,67.4,150.5,150.5C4730,7546.1,4662.6,7613.5,4579.5,7613.5z" id="XMLID_1315_"/><path class="st1" d="M4498.5,7436.7h162.1c1.3,0,2.4-1.1,2.4-2.4v-8.8c0-0.8-0.4-1.5-1-1.9l-81-60.2    c-0.8-0.6-2-0.6-2.8,0l-81,60.2c-0.6,0.4-1,1.2-1,1.9v8.8C4496.1,7435.6,4497.2,7436.7,4498.5,7436.7z M4570.8,7412.2h5.6    c0,1.3,0.3,2.2,0.9,2.8c0.6,0.6,1.5,0.8,2.5,0.8c0.9,0,1.6-0.2,2-0.7c0.4-0.5,0.6-1.1,0.6-1.9c0-0.9-0.2-1.6-0.7-2.1    c-0.4-0.5-1.3-1-2.5-1.5c-2.7-0.9-4.7-2-5.9-3.1s-1.9-2.8-1.9-4.9c0-1.9,0.7-3.5,2-4.7c1.3-1.2,3.1-1.9,5.3-2.1v-3.6h2.7v3.6    c2.1,0.3,3.8,1.1,5,2.4c1.2,1.3,1.8,3,1.8,5l0,0.1h-5.6c0-1.1-0.2-2-0.7-2.5c-0.5-0.5-1.2-0.8-2.1-0.8c-0.9,0-1.6,0.2-2,0.7    c-0.4,0.5-0.6,1.1-0.6,1.9c0,0.8,0.2,1.4,0.6,1.8c0.4,0.4,1.2,1,2.5,1.6c2.6,0.8,4.6,1.9,5.9,3.1c1.3,1.2,2,2.9,2,5    c0,2-0.6,3.6-1.9,4.7c-1.2,1.2-3,1.9-5.1,2.1v3.4h-2.7v-3.4c-2.3-0.2-4.1-0.9-5.6-2.2c-1.5-1.3-2.2-3.1-2.1-5.6L4570.8,7412.2z" id="XMLID_1323_"/><path class="st1" d="M4665.2,7541.1h-171.3c-1.3,0-2.4,1.1-2.4,2.4v6c0,1.3,1.1,2.4,2.4,2.4h171.3    c1.3,0,2.4-1.1,2.4-2.4v-6C4667.6,7542.2,4666.5,7541.1,4665.2,7541.1z" id="XMLID_1326_"/><path class="st1" d="M4499.9,7528.2v6c0,1.3,1.1,2.4,2.4,2.4h154.4c1.3,0,2.4-1.1,2.4-2.4v-6    c0-1.3-1.1-2.4-2.4-2.4h-154.4C4501,7525.8,4499.9,7526.9,4499.9,7528.2z" id="XMLID_1327_"/><path class="st1" d="M4626.9,7513.5c-0.7,0-1.2,0.6-1.2,1.2v3.6c0,0.7,0.6,1.2,1.2,1.2h21.5    c0.7,0,1.2-0.6,1.2-1.2v-3.6c0-0.7-0.6-1.2-1.2-1.2h-2.1v-63.8h2.1c0.7,0,1.2-0.6,1.2-1.2v-3.6c0-0.7-0.6-1.2-1.2-1.2h-21.5    c-0.7,0-1.2,0.6-1.2,1.2v3.6c0,0.7,0.6,1.2,1.2,1.2h2.1v63.8H4626.9z" id="XMLID_1328_"/><path class="st1" d="M4588.2,7513.5c-0.7,0-1.2,0.6-1.2,1.2v3.6c0,0.7,0.6,1.2,1.2,1.2h21.5    c0.7,0,1.2-0.6,1.2-1.2v-3.6c0-0.7-0.6-1.2-1.2-1.2h-2.1v-63.8h2.1c0.7,0,1.2-0.6,1.2-1.2v-3.6c0-0.7-0.6-1.2-1.2-1.2h-21.5    c-0.7,0-1.2,0.6-1.2,1.2v3.6c0,0.7,0.6,1.2,1.2,1.2h2.1v63.8H4588.2z" id="XMLID_1329_"/><path class="st1" d="M4549.4,7513.5c-0.7,0-1.2,0.6-1.2,1.2v3.6c0,0.7,0.6,1.2,1.2,1.2h21.5    c0.7,0,1.2-0.6,1.2-1.2v-3.6c0-0.7-0.6-1.2-1.2-1.2h-2.1v-63.8h2.1c0.7,0,1.2-0.6,1.2-1.2v-3.6c0-0.7-0.6-1.2-1.2-1.2h-21.5    c-0.7,0-1.2,0.6-1.2,1.2v3.6c0,0.7,0.6,1.2,1.2,1.2h2.1v63.8H4549.4z" id="XMLID_1330_"/><path class="st1" d="M4510.6,7513.5c-0.7,0-1.2,0.6-1.2,1.2v3.6c0,0.7,0.6,1.2,1.2,1.2h21.5    c0.7,0,1.2-0.6,1.2-1.2v-3.6c0-0.7-0.6-1.2-1.2-1.2h-2.1v-63.8h2.1c0.7,0,1.2-0.6,1.2-1.2v-3.6c0-0.7-0.6-1.2-1.2-1.2h-21.5    c-0.7,0-1.2,0.6-1.2,1.2v3.6c0,0.7,0.6,1.2,1.2,1.2h2.1v63.8H4510.6z" id="XMLID_1332_"/></g></g><g id="XMLID_16_"><circle class="st3" cx="6452.6" cy="2703.5" id="XMLID_17_" r="256"/><g id="XMLID_1333_"><path class="st1" d="M6452.6,2528.5c-96.6,0-175,78.4-175,175s78.4,175,175,175s175-78.4,175-175    S6549.2,2528.5,6452.6,2528.5z M6452.6,2854c-83.1,0-150.5-67.4-150.5-150.5c0-83.1,67.4-150.5,150.5-150.5    c83.1,0,150.5,67.4,150.5,150.5C6603.1,2786.6,6535.7,2854,6452.6,2854z" id="XMLID_1334_"/><path class="st1" d="M6384.5,2696.4v90.1h136.2v-90.1l-68.1-61.2L6384.5,2696.4z M6495.6,2713l-64.8,47.3    l-21.2-28.3l9.2-6.9l14.4,19.1l55.6-40.6L6495.6,2713z" id="XMLID_1337_"/><path class="st1" d="M6540.8,2684l-83.2-74.8c-2.9-2.6-7.2-2.6-10.1,0l-31.4,28.2v-13.7c0-1.7-1.4-3.1-3.1-3.1    h-18.6c-1.7,0-3.1,1.4-3.1,3.1v36.1l-26.9,24.2c-3.1,2.8-3.4,7.6-0.6,10.7c2.8,3.1,7.6,3.4,10.7,0.6l78.1-70.2l78.1,70.2    c1.4,1.3,3.2,1.9,5,1.9c2.1,0,4.1-0.8,5.6-2.5C6544.2,2691.6,6543.9,2686.8,6540.8,2684z" id="XMLID_1348_"/><rect class="st1" height="9.2" id="XMLID_1349_" width="136.2" x="6384.5" y="2790.6"/></g></g><g id="XMLID_14_"><circle class="st4" cx="11506.2" cy="6980.1" id="XMLID_15_" r="256"/><g id="XMLID_1350_"><path class="st1" d="M11506.2,6805.1c-96.6,0-175,78.4-175,175s78.4,175,175,175c96.7,0,175-78.4,175-175    S11602.8,6805.1,11506.2,6805.1z M11506.2,7130.6c-83.1,0-150.5-67.4-150.5-150.5c0-83.1,67.4-150.5,150.5-150.5    c83.1,0,150.5,67.4,150.5,150.5C11656.7,7063.2,11589.3,7130.6,11506.2,7130.6z" id="XMLID_1369_"/><rect class="st1" height="34.8" id="XMLID_1371_" width="188.9" x="11411.8" y="6962.7"/><circle class="st1" cx="11506.2" cy="6923.9" id="XMLID_1372_" r="25.2"/><circle class="st1" cx="11506.2" cy="7036.3" id="XMLID_1373_" r="25.2"/></g></g></svg>